<svg width="26" height="26" viewBox="0 0 26 26" fill="none" xmlns="http://www.w3.org/2000/svg">
    <path d="M7.84366 2.16666H5.78533C3.41283 2.16666 2.16699 3.41249 2.16699 5.77416V7.83249C2.16699 10.1942 3.41283 11.44 5.77449 11.44H7.83283C10.1945 11.44 11.4403 10.1942 11.4403 7.83249V5.77416C11.4512 3.41249 10.2053 2.16666 7.84366 2.16666Z" fill="url(#paint0_linear_786_1593)"/>
    <path opacity="0.4" d="M20.2254 2.16666H18.1671C15.8054 2.16666 14.5596 3.41249 14.5596 5.77416V7.83249C14.5596 10.1942 15.8054 11.44 18.1671 11.44H20.2254C22.5871 11.44 23.8329 10.1942 23.8329 7.83249V5.77416C23.8329 3.41249 22.5871 2.16666 20.2254 2.16666Z" fill="url(#paint1_linear_786_1593)"/>
    <path d="M20.2254 14.5492H18.1671C15.8054 14.5492 14.5596 15.795 14.5596 18.1567V20.215C14.5596 22.5767 15.8054 23.8225 18.1671 23.8225H20.2254C22.5871 23.8225 23.8329 22.5767 23.8329 20.215V18.1567C23.8329 15.795 22.5871 14.5492 20.2254 14.5492Z" fill="url(#paint2_linear_786_1593)"/>
    <path opacity="0.4" d="M7.84366 14.5492H5.78533C3.41283 14.5492 2.16699 15.795 2.16699 18.1567V20.215C2.16699 22.5875 3.41283 23.8333 5.77449 23.8333H7.83283C10.1945 23.8333 11.4403 22.5875 11.4403 20.2258V18.1675C11.4512 15.795 10.2053 14.5492 7.84366 14.5492Z" fill="url(#paint3_linear_786_1593)"/>
    <defs>
        <linearGradient id="paint0_linear_786_1593" x1="2.16699" y1="2.16666" x2="11.4403" y2="11.4401" gradientUnits="userSpaceOnUse">
            <stop stop-color="#29ABE2"/>
            <stop offset="1" stop-color="#4BB8E7"/>
        </linearGradient>
        <linearGradient id="paint1_linear_786_1593" x1="14.5596" y1="2.16666" x2="23.8329" y2="11.44" gradientUnits="userSpaceOnUse">
            <stop stop-color="#29ABE2"/>
            <stop offset="1" stop-color="#4BB8E7"/>
        </linearGradient>
        <linearGradient id="paint2_linear_786_1593" x1="14.5596" y1="14.5492" x2="23.8329" y2="23.8225" gradientUnits="userSpaceOnUse">
            <stop stop-color="#29ABE2"/>
            <stop offset="1" stop-color="#4BB8E7"/>
        </linearGradient>
        <linearGradient id="paint3_linear_786_1593" x1="2.16699" y1="14.5492" x2="11.4512" y2="23.8226" gradientUnits="userSpaceOnUse">
            <stop stop-color="#29ABE2"/>
            <stop offset="1" stop-color="#4BB8E7"/>
        </linearGradient>
    </defs>
</svg>
