<svg width="26" height="26" viewBox="0 0 26 26" fill="none" xmlns="http://www.w3.org/2000/svg">
    <path opacity="0.4" d="M2.16699 14.0508V7.57249C2.16699 4.58249 4.59366 2.16666 7.58366 2.16666H18.417C21.407 2.16666 23.8337 4.58249 23.8337 7.57249V15.1342C23.8337 18.1133 21.407 20.5292 18.417 20.5292H16.792C16.4562 20.5292 16.1312 20.6917 15.9253 20.9625L14.3003 23.1183C13.5853 24.0717 12.4153 24.0717 11.7003 23.1183L10.0753 20.9625C9.90199 20.7242 9.51199 20.5292 9.20866 20.5292H7.58366C4.59366 20.5292 2.16699 18.1133 2.16699 15.1342V14.0508Z" fill="url(#paint0_linear_786_1600)"/>
    <path d="M13.0003 13C12.3937 13 11.917 12.5125 11.917 11.9167C11.917 11.3208 12.4045 10.8333 13.0003 10.8333C13.5962 10.8333 14.0837 11.3208 14.0837 11.9167C14.0837 12.5125 13.607 13 13.0003 13Z" fill="url(#paint1_linear_786_1600)"/>
    <path d="M17.3333 13C16.7267 13 16.25 12.5125 16.25 11.9167C16.25 11.3208 16.7375 10.8333 17.3333 10.8333C17.9292 10.8333 18.4167 11.3208 18.4167 11.9167C18.4167 12.5125 17.94 13 17.3333 13Z" fill="url(#paint2_linear_786_1600)"/>
    <path d="M8.66634 13C8.05967 13 7.58301 12.5125 7.58301 11.9167C7.58301 11.3208 8.07051 10.8333 8.66634 10.8333C9.26217 10.8333 9.74967 11.3208 9.74967 11.9167C9.74967 12.5125 9.27301 13 8.66634 13Z" fill="url(#paint3_linear_786_1600)"/>
    <defs>
        <linearGradient id="paint0_linear_786_1600" x1="2.16699" y1="2.16666" x2="23.8337" y2="23.8333" gradientUnits="userSpaceOnUse">
            <stop stop-color="#29ABE2"/>
            <stop offset="1" stop-color="#4BB8E7"/>
        </linearGradient>
        <linearGradient id="paint1_linear_786_1600" x1="11.917" y1="10.8333" x2="14.0837" y2="13" gradientUnits="userSpaceOnUse">
            <stop stop-color="#29ABE2"/>
            <stop offset="1" stop-color="#4BB8E7"/>
        </linearGradient>
        <linearGradient id="paint2_linear_786_1600" x1="16.25" y1="10.8333" x2="18.4167" y2="13" gradientUnits="userSpaceOnUse">
            <stop stop-color="#29ABE2"/>
            <stop offset="1" stop-color="#4BB8E7"/>
        </linearGradient>
        <linearGradient id="paint3_linear_786_1600" x1="7.58301" y1="10.8333" x2="9.74967" y2="13" gradientUnits="userSpaceOnUse">
            <stop stop-color="#29ABE2"/>
            <stop offset="1" stop-color="#4BB8E7"/>
        </linearGradient>
    </defs>
</svg>
