<svg width="26" height="26" viewBox="0 0 26 26" fill="none" xmlns="http://www.w3.org/2000/svg">
    <path opacity="0.4" d="M20.9518 15.6975L19.8684 13.8992C19.6409 13.4983 19.4351 12.74 19.4351 12.2958V9.555C19.4351 6.02333 16.5643 3.14166 13.0218 3.14166C9.47927 3.14166 6.60843 6.02333 6.60843 9.555V12.2958C6.60843 12.74 6.4026 13.4983 6.1751 13.8883L5.08093 15.6975C4.6476 16.4233 4.5501 17.225 4.82093 17.9617C5.08093 18.6875 5.69843 19.2508 6.5001 19.5217C8.60177 20.2367 10.8118 20.5833 13.0218 20.5833C15.2318 20.5833 17.4418 20.2367 19.5434 19.5325C20.3018 19.2833 20.8868 18.7092 21.1684 17.9617C21.4501 17.2142 21.3743 16.3908 20.9518 15.6975Z" fill="url(#paint0_linear_786_1615)"/>
    <path d="M15.437 3.59669C14.6895 3.30419 13.877 3.14169 13.0212 3.14169C12.1762 3.14169 11.3637 3.29335 10.6162 3.59669C11.082 2.71919 12.0029 2.16669 13.0212 2.16669C14.0504 2.16669 14.9604 2.71919 15.437 3.59669Z" fill="url(#paint1_linear_786_1615)"/>
    <path d="M16.0661 21.6775C15.6111 22.9342 14.4086 23.8334 13.0003 23.8334C12.1445 23.8334 11.2995 23.4867 10.7036 22.8692C10.357 22.5442 10.097 22.1109 9.94531 21.6667C10.0861 21.6884 10.227 21.6992 10.3786 21.7209C10.6278 21.7534 10.8878 21.7859 11.1478 21.8075C11.7653 21.8617 12.3936 21.8942 13.022 21.8942C13.6395 21.8942 14.257 21.8617 14.8636 21.8075C15.0911 21.7859 15.3186 21.775 15.5353 21.7425C15.7086 21.7209 15.882 21.6992 16.0661 21.6775Z" fill="url(#paint2_linear_786_1615)"/>
    <circle cx="16.5" cy="4.5" r="2.5" fill="url(#paint3_linear_786_1615)"/>
    <defs>
        <linearGradient id="paint0_linear_786_1615" x1="4.66992" y1="3.14166" x2="22.0935" y2="19.79" gradientUnits="userSpaceOnUse">
            <stop stop-color="#29ABE2"/>
            <stop offset="1" stop-color="#4BB8E7"/>
        </linearGradient>
        <linearGradient id="paint1_linear_786_1615" x1="10.6162" y1="2.16669" x2="11.396" y2="4.79539" gradientUnits="userSpaceOnUse">
            <stop stop-color="#29ABE2"/>
            <stop offset="1" stop-color="#4BB8E7"/>
        </linearGradient>
        <linearGradient id="paint2_linear_786_1615" x1="9.94531" y1="21.6667" x2="11.3084" y2="25.5175" gradientUnits="userSpaceOnUse">
            <stop stop-color="#29ABE2"/>
            <stop offset="1" stop-color="#4BB8E7"/>
        </linearGradient>
        <linearGradient id="paint3_linear_786_1615" x1="14" y1="2" x2="19" y2="7" gradientUnits="userSpaceOnUse">
            <stop stop-color="#29ABE2"/>
            <stop offset="1" stop-color="#4BB8E7"/>
        </linearGradient>
    </defs>
</svg>
