<svg width="22" height="22" viewBox="0 0 22 22" fill="none" xmlns="http://www.w3.org/2000/svg">
<mask id="mask0_870_296" style="mask-type:alpha" maskUnits="userSpaceOnUse" x="0" y="0" width="22" height="22">
<path d="M18.1045 18.3539C20.0549 16.4035 21.1506 13.7582 21.1506 11C21.1506 8.24172 20.0549 5.59644 18.1045 3.64606C16.1541 1.69569 13.5088 0.599976 10.7506 0.599976C7.99233 0.599976 5.34705 1.69569 3.39668 3.64606C1.4463 5.59644 0.350586 8.24172 0.350586 11C0.350586 13.7582 1.4463 16.4035 3.39668 18.3539C5.34705 20.3043 7.99233 21.4 10.7506 21.4C13.5088 21.4 16.1541 20.3043 18.1045 18.3539Z" fill="url(#paint0_linear_870_296)"/>
</mask>
<g mask="url(#mask0_870_296)">
<path opacity="0.4" d="M0.349609 0.257782H21.1499V21.4H0.349959L0.349609 0.257782Z" fill="url(#paint1_linear_870_296)"/>
<path fill-rule="evenodd" clip-rule="evenodd" d="M21.1506 11C21.1506 13.7582 20.0549 16.4035 18.1045 18.3539C16.1541 20.3043 13.5088 21.4 10.7506 21.4C7.99233 21.4 5.34705 20.3043 3.39668 18.3539C1.4463 16.4035 0.350586 13.7582 0.350586 11C0.350586 8.24172 1.4463 5.59644 3.39668 3.64606C5.34705 1.69569 7.99233 0.599976 10.7506 0.599976C13.5088 0.599976 16.1541 1.69569 18.1045 3.64606C20.0549 5.59644 21.1506 8.24172 21.1506 11ZM13.3506 7.09998C13.3506 7.78954 13.0767 8.45086 12.5891 8.93845C12.1015 9.42605 11.4401 9.69998 10.7506 9.69998C10.061 9.69998 9.3997 9.42605 8.91211 8.93845C8.42451 8.45086 8.15059 7.78954 8.15059 7.09998C8.15059 6.41041 8.42451 5.74909 8.91211 5.2615C9.3997 4.7739 10.061 4.49998 10.7506 4.49998C11.4401 4.49998 12.1015 4.7739 12.5891 5.2615C13.0767 5.74909 13.3506 6.41041 13.3506 7.09998ZM10.7506 12.3C9.50597 12.2997 8.28744 12.6568 7.23983 13.3288C6.19221 14.0008 5.35954 14.9594 4.84079 16.0908C5.57227 16.9418 6.47914 17.6245 7.49921 18.0921C8.51929 18.5597 9.62843 18.8012 10.7506 18.8C11.8727 18.8012 12.9819 18.5597 14.002 18.0921C15.022 17.6245 15.9289 16.9418 16.6604 16.0908C16.1416 14.9594 15.309 14.0008 14.2613 13.3288C13.2137 12.6568 11.9952 12.2997 10.7506 12.3Z" fill="url(#paint2_linear_870_296)"/>
</g>
<defs>
<linearGradient id="paint0_linear_870_296" x1="0.350586" y1="0.599976" x2="21.1506" y2="21.4" gradientUnits="userSpaceOnUse">
<stop stop-color="#29ABE2"/>
<stop offset="1" stop-color="#4BB8E7"/>
</linearGradient>
<linearGradient id="paint1_linear_870_296" x1="0.349609" y1="0.257782" x2="21.489" y2="21.0554" gradientUnits="userSpaceOnUse">
<stop stop-color="#29ABE2"/>
<stop offset="1" stop-color="#4BB8E7"/>
</linearGradient>
<linearGradient id="paint2_linear_870_296" x1="0.350586" y1="0.599976" x2="21.1506" y2="21.4" gradientUnits="userSpaceOnUse">
<stop stop-color="#29ABE2"/>
<stop offset="1" stop-color="#4BB8E7"/>
</linearGradient>
</defs>
</svg>
